<svg width="1200" height="360" viewBox="0 0 1200 360" fill="none" xmlns="http://www.w3.org/2000/svg">
<defs>
<linearGradient id="bg" x1="60" y1="40" x2="1140" y2="320" gradientUnits="userSpaceOnUse">
<stop stop-color="#0B1220"/>
<stop offset="1" stop-color="#13243F"/>
</linearGradient>
<linearGradient id="g1" x1="86" y1="78" x2="286" y2="278" gradientUnits="userSpaceOnUse">
<stop stop-color="#2DD4BF"/>
<stop offset="1" stop-color="#3B82F6"/>
</linearGradient>
<linearGradient id="g2" x1="128" y1="120" x2="312" y2="292" gradientUnits="userSpaceOnUse">
<stop stop-color="#60A5FA"/>
<stop offset="1" stop-color="#2563EB"/>
</linearGradient>
<linearGradient id="tx" x1="380" y1="92" x2="1010" y2="268" gradientUnits="userSpaceOnUse">
<stop stop-color="#E2E8F0"/>
<stop offset="1" stop-color="#93C5FD"/>
</linearGradient>
<filter id="soft" x="0" y="0" width="1200" height="360" filterUnits="userSpaceOnUse" color-interpolation-filters="sRGB">
<feGaussianBlur stdDeviation="18"/>
</filter>
</defs>
<rect x="20" y="20" width="1160" height="320" rx="44" fill="url(#bg)"/>
<g opacity="0.28" filter="url(#soft)">
<ellipse cx="930" cy="282" rx="180" ry="44" fill="#2563EB"/>
<ellipse cx="810" cy="70" rx="160" ry="36" fill="#22D3EE"/>
</g>
<rect x="86" y="78" width="212" height="212" rx="44" fill="url(#g1)"/>
<rect x="122" y="114" width="196" height="176" rx="34" fill="#0F172A" fill-opacity="0.9"/>
<rect x="144" y="138" width="112" height="90" rx="18" fill="url(#g2)"/>
<rect x="252" y="196" width="54" height="42" rx="12" fill="#22D3EE"/>
<circle cx="223" cy="185" r="18" fill="#DBEAFE"/>
<path d="M199 173C199 160.297 209.297 150 222 150H223.5C236.203 150 246.5 160.297 246.5 173V174.5C246.5 187.203 236.203 197.5 223.5 197.5H222C209.297 197.5 199 187.203 199 174.5V173Z" fill="#0EA5E9" fill-opacity="0.44"/>
<path d="M384 148H741.4C748.358 148 754 153.642 754 160.6V173.4C754 180.358 748.358 186 741.4 186H384V148Z" fill="#1E293B"/>
<path d="M384 194H1030C1036.96 194 1042.6 199.642 1042.6 206.6V219.4C1042.6 226.358 1036.96 232 1030 232H384V194Z" fill="#0F172A"/>
<text x="380" y="134" fill="url(#tx)" font-family="Segoe UI, Microsoft YaHei, sans-serif" font-size="88" font-weight="700" letter-spacing="1.2">Keu·See</text>
<text x="384" y="179" fill="#67E8F9" font-family="Segoe UI, Microsoft YaHei, sans-serif" font-size="31" font-weight="600">画中画录屏工具</text>
<text x="384" y="225" fill="#BFDBFE" font-family="Segoe UI, Microsoft YaHei, sans-serif" font-size="25" font-weight="500">免费好用 · 先录后剪 · AI 自动着重 · 3D 变换增强讲解表现力</text>
</svg>
